<?xml version="1.0" encoding="UTF-8"?>
<svg id="Layer_1_copy_3" data-name="Layer 1 copy 3" xmlns="http://www.w3.org/2000/svg" viewBox="0 0 1000 1000">
  <defs>
    <style>
      .cls-1 {
        fill: #00a550;
      }
    </style>
  </defs>
  <rect y="858.33" width="1000" height="141.67"/>
  <path class="cls-1" d="M923.83,233.6c62.02-18.84,93.32-87.93,66.58-146.98h0c-21.47-47.41-73.86-72.59-124.29-59.74l-251.39,65.74c-3.86,1.51-8.1,1.78-12.12.77L152.84,0l-61.12,47.58,269.17,152.1c15.18,6.75,15.92,28.02,1.25,35.81l-172.22,84.63c-4.93,2.62-10.73,3.05-15.99,1.18l-125.08-44.26L3.73,326.06l171.03,141.14,749.08-233.6Z"/>
  <rect x="3.73" y="686.67" width="485" height="141.67"/>
  <rect x="515" y="515" width="485" height="313.33"/>
</svg>