<?xml version="1.0" encoding="UTF-8"?>
<svg id="Layer_1_copy_3" data-name="Layer 1 copy 3" xmlns="http://www.w3.org/2000/svg" viewBox="0 0 1000 1000">
  <defs>
    <style>
      .cls-1 {
        fill: #00a550;
      }
    </style>
  </defs>
  <rect class="cls-1" y="858.33" width="1000" height="141.67"/>
  <rect x="2.72" y="686.67" width="141.67" height="141.67"/>
  <rect x="858.33" y="686.67" width="141.67" height="141.67"/>
  <path d="M133.72,352.08h732.56c5.15,0,9.65-2.51,12.35-6.89,2.71-4.38,2.94-9.53.64-14.13l-101.29-202.57c-8.02-16.03-24.13-25.99-42.06-25.99h-471.84c-17.93,0-34.04,9.96-42.06,25.99l-101.29,202.57c-2.3,4.6-2.07,9.75.64,14.13,2.7,4.38,7.21,6.89,12.35,6.89Z"/>
  <path d="M993.48,330.29l-123.82-247.63C844.33,32,792.56,0,735.92,0h-471.84c-56.64,0-108.41,32-133.74,82.66L6.52,330.29c-4.29,8.58-6.52,18.04-6.52,27.63v236.97c0,34.12,27.66,61.78,61.78,61.78h876.44c34.12,0,61.78-27.66,61.78-61.78v-236.97c0-9.59-2.23-19.05-6.52-27.63ZM98.37,319.89l101.29-202.57c12.28-24.56,36.96-39.81,64.42-39.81h471.84c27.46,0,52.14,15.26,64.42,39.81l101.29,202.57c6.17,12.34,5.52,26.71-1.73,38.45-7.25,11.74-19.82,18.74-33.62,18.74H133.72c-13.8,0-26.36-7.01-33.62-18.74-7.25-11.74-7.9-26.11-1.73-38.45ZM215.22,500c0,39.12-31.71,70.83-70.83,70.83h0c-39.12,0-70.83-31.71-70.83-70.83h0c0-39.12,31.71-70.83,70.83-70.83h0c39.12,0,70.83,31.71,70.83,70.83h0ZM929.17,500c0,39.12-31.71,70.83-70.83,70.83h0c-39.12,0-70.83-31.71-70.83-70.83h0c0-39.12,31.71-70.83,70.83-70.83h0c39.12,0,70.83,31.71,70.83,70.83h0Z"/>
</svg>