<?xml version="1.0" encoding="UTF-8"?>
<svg id="Layer_1_copy_3" data-name="Layer 1 copy 3" xmlns="http://www.w3.org/2000/svg" viewBox="0 0 1000 1000">
  <defs>
    <style>
      .cls-1 {
        fill: #00a550;
      }
    </style>
  </defs>
  <path class="cls-1" d="M242.5,0C108.57,0,0,108.57,0,242.5s108.57,242.5,242.5,242.5,242.5-108.57,242.5-242.5S376.43,0,242.5,0ZM313.33,242.5c0,39.12-31.71,70.83-70.83,70.83h0c-39.12,0-70.83-31.71-70.83-70.83h0c0-39.12,31.71-70.83,70.83-70.83h0c39.12,0,70.83,31.71,70.83,70.83h0Z"/>
  <path d="M1000,237.77c0-131.82-106.86-238.68-238.68-238.68h-7.63c-131.82,0-238.68,106.86-238.68,238.68v523.55c0,131.82,106.86,238.68,238.68,238.68h7.63c131.82,0,238.68-106.86,238.68-238.68V237.77ZM851.22,832.63c-2.44,2.44-5.64,3.66-8.84,3.66s-6.4-1.22-8.84-3.66l-181.07-181.07c-4.88-4.88-4.88-12.8,0-17.68,4.88-4.88,12.8-4.88,17.68,0l181.07,181.07c4.88,4.88,4.88,12.8,0,17.68ZM864.6,610.38c-2.44,2.44-5.64,3.66-8.84,3.66s-6.4-1.22-8.84-3.66l-181.07-181.07c-4.88-4.88-4.88-12.8,0-17.68,4.88-4.88,12.8-4.88,17.68,0l181.07,181.07c4.88,4.88,4.88,12.8,0,17.68ZM877.99,388.14c-2.44,2.44-5.64,3.66-8.84,3.66s-6.4-1.22-8.84-3.66l-181.07-181.07c-4.88-4.88-4.88-12.8,0-17.68s12.8-4.88,17.68,0l181.07,181.07c4.88,4.88,4.88,12.8,0,17.68Z"/>
  <path d="M242.5,515C108.57,515,0,623.57,0,757.5s108.57,242.5,242.5,242.5,242.5-108.57,242.5-242.5-108.57-242.5-242.5-242.5ZM341.87,839.19c4.88,4.88,4.88,12.8,0,17.68-2.44,2.44-5.64,3.66-8.84,3.66s-6.4-1.22-8.84-3.66l-81.69-81.69-81.69,81.69c-2.44,2.44-5.64,3.66-8.84,3.66s-6.4-1.22-8.84-3.66c-4.88-4.88-4.88-12.8,0-17.68l81.69-81.69-81.69-81.69c-4.88-4.88-4.88-12.8,0-17.68,4.88-4.88,12.8-4.88,17.68,0l81.69,81.69,81.69-81.69c4.88-4.88,12.8-4.88,17.68,0,4.88,4.88,4.88,12.8,0,17.68l-81.69,81.69,81.69,81.69Z"/>
</svg>