<?xml version="1.0" encoding="UTF-8"?>
<svg id="Layer_1_copy_3" data-name="Layer 1 copy 3" xmlns="http://www.w3.org/2000/svg" viewBox="0 0 1000 1000">
  <defs>
    <style>
      .cls-1 {
        fill: #00a550;
      }
    </style>
  </defs>
  <rect width="312.99" height="312.99" rx="20" ry="20"/>
  <rect y="343.33" width="313.33" height="313.33" rx="20" ry="20"/>
  <path d="M156.53,686.67h0c86.47,0,156.67,70.2,156.67,156.67h0c0,86.47-70.2,156.67-156.67,156.67h0C70.06,1000-.14,929.8-.14,843.33H-.14c0-86.47,70.2-156.67,156.67-156.67Z"/>
  <path d="M500,0h0C586.47,0,656.67,70.2,656.67,156.67h0c0,86.47-70.2,156.67-156.67,156.67h0c-86.47,0-156.67-70.2-156.67-156.67h0C343.33,70.2,413.53,0,500,0Z"/>
  <rect class="cls-1" x="343.33" y="343.33" width="313.33" height="313.33" rx="20" ry="20"/>
  <path class="cls-1" d="M636.67,686.67h-273.33c-11.05,0-20,8.95-20,20v273.33c0,11.05,8.95,20,20,20h273.33c11.05,0,20-8.95,20-20v-273.33c0-11.05-8.95-20-20-20ZM572.14,848.84c0,39.12-31.71,70.83-70.83,70.83h0c-39.12,0-70.83-31.71-70.83-70.83h0c0-39.12,31.71-70.83,70.83-70.83h0c39.12,0,70.83,31.71,70.83,70.83h0Z"/>
  <path class="cls-1" d="M706.67,313.33h273.33c11.05,0,20-8.95,20-20V20c0-11.05-8.95-20-20-20h-273.33c-11.05,0-20,8.95-20,20v273.33c0,11.05,8.95,20,20,20ZM772.02,156.67c0-39.12,31.71-70.83,70.83-70.83h0c39.12,0,70.83,31.71,70.83,70.83h0c0,39.12-31.71,70.83-70.83,70.83h0c-39.12,0-70.83-31.71-70.83-70.83h0Z"/>
  <path d="M843.95,343.33h0c86.47,0,156.67,70.2,156.67,156.67h0c0,86.47-70.2,156.67-156.67,156.67h0c-86.47,0-156.67-70.2-156.67-156.67h0c0-86.47,70.2-156.67,156.67-156.67Z"/>
  <path d="M997.88,856.72c-.91-35.83-8.49-70.25-21.53-102.07-1.56-3.83-3.22-7.63-4.95-11.37-5.24-10.3-12.3-19.98-21.21-28.52-38.6-37.02-98.59-38.92-135.79-4.27-21.21,19.76-30.94,47.12-29.42,74.48-27.32-1.52-54.62,8.17-74.38,29.32-34.72,37.17-32.89,97.2,4.13,135.84,8.55,8.93,18.25,16.01,28.57,21.26,3.74,1.73,7.54,3.38,11.37,4.95,31.81,13.05,66.24,20.62,102.07,21.53l82.93,2.1c34.18.87,61.19-26.14,60.32-60.32l-2.1-82.93Z"/>
</svg>