<?xml version="1.0" encoding="UTF-8"?>
<svg id="Layer_1_copy_3" data-name="Layer 1 copy 3" xmlns="http://www.w3.org/2000/svg" viewBox="0 0 1000 1000">
  <defs>
    <style>
      .cls-1 {
        fill: #00a550;
      }
    </style>
  </defs>
  <rect class="cls-1" x="0" y="858.33" width="141.67" height="141.67" rx="70.83" ry="70.83"/>
  <path class="cls-1" d="M242.5,858.33h0c-39.12,0-70.83,31.71-70.83,70.83h0c0,39.12,31.71,70.83,70.83,70.83h0c39.12,0,70.83-31.71,70.83-70.83h0c0-39.12-31.71-70.83-70.83-70.83Z"/>
  <rect class="cls-1" x="343.33" y="858.33" width="141.67" height="141.67" rx="70.83" ry="70.83"/>
  <rect class="cls-1" x="515" y="858.33" width="141.67" height="141.67" rx="70.83" ry="70.83"/>
  <path class="cls-1" d="M757.5,858.33h0c-39.12,0-70.83,31.71-70.83,70.83h0c0,39.12,31.71,70.83,70.83,70.83h0c39.12,0,70.83-31.71,70.83-70.83h0c0-39.12-31.71-70.83-70.83-70.83Z"/>
  <rect class="cls-1" x="858.33" y="858.33" width="141.67" height="141.67" rx="70.83" ry="70.83"/>
  <path d="M534.44,414.17c0-6.9,5.6-12.5,12.5-12.5h454.27s0-381.67,0-381.67c0-11.05-8.95-20-20-20h-468.11v363.41c0,6.9-5.6,12.5-12.5,12.5s-12.5-5.6-12.5-12.5V0H20C8.95,0,0,8.95,0,20v381.67h452.38c6.9,0,12.5,5.6,12.5,12.5s-5.6,12.5-12.5,12.5H0v381.67c0,11.05,8.95,20,20,20h468.11v-370.35c0-6.9,5.6-12.5,12.5-12.5s12.5,5.6,12.5,12.5v370.35h468.11c11.05,0,20-8.95,20-20v-381.67h-454.27c-6.9,0-12.5-5.6-12.5-12.5ZM157.13,692.18c1.04,2.69,2.15,5.37,3.32,8.02-1.27-2.58-2.38-5.26-3.32-8.02ZM389.75,700.2c1.17-2.65,2.28-5.33,3.32-8.02-.94,2.76-2.05,5.44-3.32,8.02Z"/>
  <path d="M160.45,700.2c-1.17-2.65-2.28-5.33-3.32-8.02.94,2.76,2.05,5.44,3.32,8.02Z"/>
  <path d="M393.07,692.18c-1.04,2.69-2.15,5.37-3.32,8.02,1.27-2.58,2.38-5.26,3.32-8.02Z"/>
</svg>