<?xml version="1.0" encoding="UTF-8"?>
<svg id="Layer_1_copy_3" data-name="Layer 1 copy 3" xmlns="http://www.w3.org/2000/svg" viewBox="0 0 1000 1000">
  <defs>
    <style>
      .cls-1 {
        fill: #00a550;
      }
    </style>
  </defs>
  <path class="cls-1" d="M295.67,755.83h181.94c59.39,0,107.7-48.31,107.7-107.7v-335.53c0-64.14-24.98-124.43-70.33-169.78-45.35-45.35-105.65-70.33-169.78-70.33h-30.5c-65.31,0-126.55,25.62-172.44,72.13-44.98,45.59-69.76,106.69-69.76,172.03v424.36c0,.54.03,1.09.08,1.62l.72,6.98-.63,6.98c-.11,1.26-.17,2.48-.17,3.64v104.14c0,39.74,32.33,72.08,72.08,72.08h24.52c39.56,0,71.74-32.18,71.74-71.74v-54.05c0-30.24,24.6-54.84,54.84-54.84ZM242.5,656.67c-39.12,0-70.83-31.71-70.83-70.83h0c0-39.12,31.71-70.83,70.83-70.83h0c39.12,0,70.83,31.71,70.83,70.83h0c0,39.12-31.71,70.83-70.83,70.83h0Z"/>
  <path class="cls-1" d="M258.99,4.92c.28-.05.55-.09.83-.14-.28.05-.56.09-.83.14Z"/>
  <path class="cls-1" d="M4.91,259.06s0-.04.01-.06c0,.02,0,.04-.01.06Z"/>
  <path class="cls-1" d="M650.05,707.1c-21.85,70.23-87.36,121.23-164.78,121.23h-144.51c-15.15,0-27.43,12.28-27.43,27.43v2.57c0,52.12-28.15,97.67-70.08,122.27,41.93-24.6,70.08-70.14,70.08-122.26v-2.57c0-15.15,12.28-27.43,27.43-27.43h144.51c77.42,0,142.94-51,164.78-121.23Z"/>
  <path class="cls-1" d="M256.83,5.33C130.05,28.9,29.99,128.46,5.68,254.98,29.99,128.46,130.05,28.9,256.83,5.33Z"/>
  <path class="cls-1" d="M609.48,145.59C554.07,58.1,456.43,0,345.2,0h0c111.22,0,208.87,58.1,264.28,145.59Z"/>
  <path class="cls-1" d="M0,741.3c0,2.96.16,5.89.46,8.78-.11,1.23-.2,2.48-.27,3.72.07-1.24.16-2.49.27-3.72-.3-2.89-.46-5.82-.47-8.78Z"/>
  <path class="cls-1" d="M0,858c0,78.42,63.58,142,142,142C63.58,1000,0,936.42,0,858Z"/>
  <path d="M313.33,858.33v-2.57c0-15.15,12.28-27.43,27.43-27.43h144.51c77.42,0,142.94-51,164.78-121.23,5.04-16.21,7.76-33.44,7.76-51.31v-343.18c0-61.43-17.73-118.7-48.33-167.02C554.07,58.1,456.42,0,345.2,0h-30.5c-18.72,0-37.05,1.64-54.87,4.78-.28.05-.56.09-.83.14-.72.13-1.44.28-2.17.42C130.05,28.9,29.99,128.46,5.68,254.98c-.26,1.34-.53,2.67-.77,4.02,0,.02,0,.04-.01.06-3.22,18.06-4.91,36.66-4.91,55.64v426.32c0,.09,0,.19,0,.28,0,2.96.17,5.89.47,8.78-.11,1.23-.2,2.48-.27,3.72-.13,2.13-.2,4.28-.2,6.44v97.76c0,78.42,63.58,142,142,142h29.67c26.12,0,50.58-7.08,71.58-19.4,41.92-24.6,70.08-70.14,70.08-122.27ZM265.83,864.72c0,53.34-43.4,96.74-96.74,96.74h-24.52c-53.53,0-97.08-43.55-97.08-97.08v-104.14c0-1.91.09-3.89.27-5.89l.41-4.58-.47-4.57c-.14-1.39-.22-2.79-.22-4.19v-424.36c0-35.37,6.66-69.82,19.81-102.38,13.27-32.88,32.5-62.22,57.16-87.21,50.63-51.31,118.19-79.57,190.24-79.57h30.5c70.81,0,137.39,27.58,187.46,77.65s77.65,116.65,77.65,187.46v335.53c0,73.17-59.53,132.7-132.7,132.7h-181.94c-16.45,0-29.84,13.38-29.84,29.84v54.05Z"/>
  <path d="M1000,565v-270.9C1000,132.1,868.67.77,706.67.77h0c-11.05,0-20,8.95-20,20v837.57h20c162,0,293.33-131.33,293.33-293.33ZM899.17,171.67c0,39.12-31.71,70.83-70.83,70.83h0c-39.12,0-70.83-31.71-70.83-70.83h0c0-39.12,31.71-70.83,70.83-70.83h0c39.12,0,70.83,31.71,70.83,70.83h0Z"/>
  <path d="M686.67,858.33c0,78.24,63.43,141.67,141.67,141.67h170.58c0-78.24-63.43-141.67-141.67-141.67h-170.58Z"/>
  <path d="M615.24,858.33c-55.36,0-100.24,44.88-100.24,100.24v41.43h71.43c55.36,0,100.24-44.88,100.24-100.24v-41.43h-71.43Z"/>
  <rect x="343.33" y="858.33" width="141.67" height="141.67" rx="70.83" ry="70.83"/>
</svg>