<?xml version="1.0" encoding="UTF-8"?>
<svg id="Layer_1_copy_3" data-name="Layer 1 copy 3" xmlns="http://www.w3.org/2000/svg" viewBox="0 0 1000 1000">
  <path d="M500,0C223.86,0,0,223.86,0,500s223.86,500,500,500,500-223.86,500-500S776.14,0,500,0ZM313.33,500c0,39.12-31.71,70.83-70.83,70.83h0c-39.12,0-70.83-31.71-70.83-70.83h0c0-39.12,31.71-70.83,70.83-70.83h0c39.12,0,70.83,31.71,70.83,70.83h0ZM570.83,500c0,39.12-31.71,70.83-70.83,70.83h0c-39.12,0-70.83-31.71-70.83-70.83h0c0-39.12,31.71-70.83,70.83-70.83h0c39.12,0,70.83,31.71,70.83,70.83h0ZM828.33,500c0,39.12-31.71,70.83-70.83,70.83h0c-39.12,0-70.83-31.71-70.83-70.83h0c0-39.12,31.71-70.83,70.83-70.83h0c39.12,0,70.83,31.71,70.83,70.83h0Z"/>
</svg>