<?xml version="1.0" encoding="UTF-8"?>
<svg id="Layer_1_copy_3" data-name="Layer 1 copy 3" xmlns="http://www.w3.org/2000/svg" viewBox="0 0 1000 1000">
  <defs>
    <style>
      .cls-1 {
        fill: #00a550;
      }
    </style>
  </defs>
  <rect width="656.67" height="656.67" rx="20" ry="20"/>
  <path class="cls-1" d="M828.33,808.05V191.38c0-11.05-8.95-20-20-20h-101.67c-11.05,0-20,8.95-20,20v475c0,11.05-8.95,20-20,20H191.67c-11.05,0-20,8.95-20,20v101.67c0,11.05,8.95,20,20,20h616.67c11.05,0,20-8.95,20-20Z"/>
  <path d="M980,343.33h-101.67c-11.05,0-20,8.95-20,20v475c0,11.05-8.95,20-20,20h-475c-11.05,0-20,8.95-20,20v101.67c0,11.05,8.95,20,20,20h616.67c11.05,0,20-8.95,20-20V363.33c0-11.05-8.95-20-20-20Z"/>
</svg>