<?xml version="1.0" encoding="UTF-8"?>
<svg id="Layer_1_copy_3" data-name="Layer 1 copy 3" xmlns="http://www.w3.org/2000/svg" viewBox="0 0 1000 1000">
  <defs>
    <style>
      .cls-1 {
        fill: #00a550;
      }
    </style>
  </defs>
  <path class="cls-1" d="M156.53,0h0C242.99,0,313.19,70.2,313.19,156.67h0c0,86.47-70.2,156.67-156.67,156.67h0C70.06,313.33-.14,243.13-.14,156.67H-.14C-.14,70.2,70.06,0,156.53,0Z"/>
  <path class="cls-1" d="M500,0h0C586.47,0,656.67,70.2,656.67,156.67h0c0,86.47-70.2,156.67-156.67,156.67h0c-86.47,0-156.67-70.2-156.67-156.67h0C343.33,70.2,413.53,0,500,0Z"/>
  <path class="cls-1" d="M843.47,0h0C929.94,0,1000.14,70.2,1000.14,156.67h0c0,86.47-70.2,156.67-156.67,156.67h0c-86.47,0-156.67-70.2-156.67-156.67h0C686.81,70.2,757.01,0,843.47,0Z"/>
  <path d="M531.41,671.67c0-6.9,5.6-12.5,12.5-12.5h456.09s0-295.83,0-295.83c0-11.05-8.95-20-20-20h-467.53v280.37c0,6.9-5.6,12.5-12.5,12.5s-12.5-5.6-12.5-12.5v-280.37H20c-11.05,0-20,8.95-20,20v295.83h449.34c6.9,0,12.5,5.6,12.5,12.5s-5.6,12.5-12.5,12.5H0v295.83c0,11.05,8.95,20,20,20h467.47v-281.73c0-6.9,5.6-12.5,12.5-12.5s12.5,5.6,12.5,12.5v281.73h467.53c11.05,0,20-8.95,20-20v-295.83h-456.09c-6.9,0-12.5-5.6-12.5-12.5Z"/>
</svg>