<?xml version="1.0" encoding="UTF-8"?>
<svg id="Layer_1_copy_3" data-name="Layer 1 copy 3" xmlns="http://www.w3.org/2000/svg" viewBox="0 0 1000 1000">
  <defs>
    <style>
      .cls-1 {
        fill: #00a550;
      }
    </style>
  </defs>
  <path class="cls-1" d="M636.67,858.33h-303.33c-11.05,0-20-8.95-20-20V191.67c0-11.05-8.95-20-20-20H20c-11.05,0-20,8.95-20,20v788.33c0,11.05,8.95,20,20,20h616.67c11.05,0,20-8.95,20-20v-101.67c0-11.05-8.95-20-20-20Z"/>
  <path d="M994.14,130.23L869.77,5.86c-3.75-3.75-8.84-5.86-14.14-5.86h-492.29c-11.05,0-20,8.95-20,20v785.54c0,11.05,8.95,20,20,20h616.67c11.05,0,20-8.95,20-20V144.37c0-5.3-2.11-10.39-5.86-14.14Z"/>
</svg>