<?xml version="1.0" encoding="UTF-8"?>
<svg id="Layer_1_copy_3" data-name="Layer 1 copy 3" xmlns="http://www.w3.org/2000/svg" viewBox="0 0 1000 1000">
  <defs>
    <style>
      .cls-1 {
        fill: #00a550;
      }
    </style>
  </defs>
  <path d="M328.88,226.28l171.11-141.68,171.67,141.67,170.87-141.45,157.48,121.66V20c0-11.05-8.95-20-20-20H20C8.95,0,0,8.95,0,20v200.53L156.44,84.45l172.44,141.83Z"/>
  <path d="M671.68,902.74l-171.67-141.67-171.08,141.66-172.04-141.5L2.01,895.95c-.63.55-1.31,1.03-2.01,1.43v82.62c0,11.05,8.95,20,20,20h960c11.05,0,20-8.95,20-20v-97.9l-156.94-121.24-171.38,141.88Z"/>
  <path d="M843.06,331.5l-171.38,141.88-171.67-141.67-171.08,141.66-172.04-141.5L2.01,466.59c-.63.55-1.31,1.03-2.01,1.43v181.87l156.44-136.09,172.44,141.83,171.11-141.68,171.67,141.67,170.87-141.45,157.48,121.66v-183.09l-156.94-121.24Z"/>
  <path class="cls-1" d="M328.88,440.96l171.11-141.68,171.67,141.67,170.87-141.45,157.48,121.66v-183.09l-156.94-121.24-171.38,141.88-171.67-141.67-171.08,141.66L156.89,117.19,2.01,251.92c-.63.55-1.31,1.03-2.01,1.43v181.87l156.44-136.09,172.44,141.83Z"/>
  <path class="cls-1" d="M671.68,688.06l-171.67-141.67-171.08,141.66-172.04-141.5L2.01,681.27c-.63.55-1.31,1.03-2.01,1.43v181.87l156.44-136.09,172.44,141.83,171.11-141.68,171.67,141.67,170.87-141.45,157.48,121.66v-183.09l-156.94-121.24-171.38,141.88Z"/>
</svg>