<?xml version="1.0" encoding="UTF-8"?>
<svg id="Layer_1_copy_3" data-name="Layer 1 copy 3" xmlns="http://www.w3.org/2000/svg" viewBox="0 0 1000 1000">
  <defs>
    <style>
      .cls-1 {
        fill: #00a550;
      }
    </style>
  </defs>
  <path class="cls-1" d="M500,0C223.86,0,0,223.86,0,500s223.86,500,500,500,500-223.86,500-500S776.14,0,500,0ZM933.58,500c0,58.53-11.47,115.31-34.08,168.77-21.84,51.63-53.1,98-92.92,137.82-39.82,39.82-86.18,71.08-137.82,92.92-53.46,22.61-110.25,34.08-168.77,34.08s-115.31-11.47-168.77-34.08c-51.63-21.84-98-53.1-137.82-92.92-39.82-39.82-71.08-86.18-92.92-137.82-22.61-53.46-34.08-110.25-34.08-168.77s11.47-115.31,34.08-168.77c21.84-51.63,53.1-98,92.92-137.82,39.82-39.82,86.18-71.08,137.82-92.92,53.46-22.61,110.25-34.08,168.77-34.08s115.31,11.47,168.77,34.08c51.63,21.84,98,53.1,137.82,92.92,39.82,39.82,71.08,86.18,92.92,137.82,22.61,53.46,34.08,110.25,34.08,168.77Z"/>
  <path d="M500,91.42c-225.29,0-408.58,183.29-408.58,408.58s183.29,408.58,408.58,408.58,408.58-183.29,408.58-408.58S725.29,91.42,500,91.42ZM491.02,665.9l-106.71,67.97c-1.26.79-2.65,1.17-4.03,1.17-2.48,0-4.91-1.23-6.34-3.47-2.23-3.49-1.19-8.13,2.31-10.36l77.16-49.14h-169.23c-14.75,0-27.94-7.63-35.3-20.41-7.35-12.78-7.32-28.03.09-40.78l86.11-148.1c3.47-5.97,11.12-8,17.09-4.52,5.97,3.47,7.99,11.12,4.52,17.09l-86.11,148.1c-4.13,7.09-1.4,13.37-.04,15.74,1.36,2.37,5.42,7.88,13.63,7.88h169.23l-77.16-49.14c-3.5-2.23-4.54-6.87-2.31-10.36s6.9-4.5,10.37-2.3l106.71,67.97c2.15,1.38,3.47,3.76,3.47,6.33s-1.32,4.95-3.47,6.33ZM499.61,242.42s-.09,0-.14,0c-5.68,0-10.76,2.93-13.61,7.86l-84.22,145.88,81.13-42.25c3.68-1.92,8.22-.5,10.13,3.17,1.91,3.67.44,8.22-3.19,10.13l-112.22,58.43c-2.27,1.18-5,1.12-7.22-.16-2.22-1.28-3.63-3.62-3.74-6.17l-5.51-126.4c-.06-1.49.31-2.88,1-4.07,1.24-2.14,3.52-3.63,6.18-3.76,4.13-.19,7.63,3.04,7.81,7.18l3.98,91.39,84.22-145.88c7.37-12.77,20.53-20.36,35.25-20.36.12,0,.24,0,.36,0,14.86.12,28.05,7.96,35.26,20.95l83.44,150.28c3.35,6.04,1.17,13.64-4.86,17-6.03,3.35-13.64,1.17-17-4.86l-83.44-150.28c-2.79-5.02-7.87-8.04-13.61-8.09ZM757.74,503.36c-1.91,3.67-6.45,5.09-10.13,3.17l-81.14-42.25,84.2,145.85c7.43,12.88,7.37,28.21-.18,41.03-7.42,12.6-20.48,20.06-35.05,20.06-.25,0-.49,0-.74,0l-162.85-2.82c-6.9-.12-12.4-5.81-12.28-12.71.12-6.83,5.69-12.28,12.49-12.28.07,0,.15,0,.22,0l162.85,2.82c5.76.12,10.91-2.79,13.82-7.74,2.91-4.95,2.94-10.87.07-15.84l-84.2-145.85-3.98,91.39c-.18,4.15-3.68,7.37-7.81,7.18s-7.34-3.73-7.18-7.83l5.51-126.4c.12-2.55,1.52-4.89,3.74-6.17,2.22-1.28,4.95-1.33,7.22-.16l112.22,58.43c1.31.7,2.34,1.71,3.03,2.9,1.24,2.14,1.39,4.86.16,7.23Z"/>
</svg>