<?xml version="1.0" encoding="UTF-8"?>
<svg id="Layer_1_copy_3" data-name="Layer 1 copy 3" xmlns="http://www.w3.org/2000/svg" viewBox="0 0 1000 1000">
  <defs>
    <style>
      .cls-1 {
        fill: #00a550;
      }
    </style>
  </defs>
  <path d="M556.06,653.55l-.57-.45L35.6,217.78c-47.6,70.18-55.1,153.25,25.44,215.77,0,0,496.08,352.85,496.08,352.85,69.65,60.82,222.93,38.19,310.47,41.54,8.71.33,17.44,0,26.05-1.4,65.57-10.58,106.01-68.19,106.69-127.37h-306.68c-49.86,0-97.43-15.77-137.58-45.62Z"/>
  <path d="M693.64,674.17h304.56c-5.53-30.04-22-58.83-51.4-80.26-63.4-50.98-148.62-31.21-180.49-108.91,0,0-9.76-29.58-23.46-71.09-40.49,1.49-82.13,13.08-125.8,34.92-1.79.9-3.7,1.32-5.58,1.32-4.59,0-9-2.53-11.19-6.91-3.09-6.17-.58-13.68,5.59-16.77,36.74-18.37,73.18-30.15,108.3-35.01,6.88-.95,13.74-1.64,20.59-2.07-4.95-15.02-10.22-30.97-15.59-47.24-45.42-1.28-92.16,10.31-141.5,34.98-1.79.9-3.7,1.32-5.58,1.32-4.59,0-9-2.53-11.19-6.91-3.09-6.17-.58-13.68,5.59-16.77,36.74-18.37,73.18-30.15,108.3-35.01,12.09-1.67,24.15-2.53,36.14-2.6-5.1-15.44-10.18-30.86-15.09-45.73-50.45-4.83-102.38,6.42-157.55,34.01-1.79.9-3.7,1.32-5.58,1.32-4.59,0-9-2.53-11.19-6.91-3.09-6.17-.58-13.68,5.59-16.77,36.74-18.37,73.18-30.15,108.3-35.01,17.43-2.41,34.8-3.13,51.99-2.22-5.29-16.05-10.22-30.96-14.5-43.94-55.62-9.25-112.81,1.25-173.99,31.84-1.79.9-3.7,1.32-5.58,1.32-4.59,0-9-2.53-11.19-6.91-3.09-6.17-.58-13.68,5.59-16.77,36.74-18.37,73.18-30.15,108.3-35.01,22.91-3.17,45.71-3.46,68.16-.89-4.72-14.3-7.53-22.82-7.53-22.82-5.2-56.45-177.81-56.46-225.78-21.69-94.85,86.01-179.31.92-209.36-122.71-2.46-9-14.1-11.22-19.73-3.81l-125.69,165.51c-9.14,8.85-17.69,18.14-25.53,27.75l520.69,435.99c35.75,26.48,78.06,40.47,122.38,40.47Z"/>
  <rect y="858.33" width="1000" height="141.67"/>
  <polygon class="cls-1" points="0 828.33 554.03 828.33 355.21 686.67 0 686.67 0 828.33"/>
  <polygon class="cls-1" points="0 515 0 656.67 313.33 656.67 114.7 515 0 515"/>
</svg>