<?xml version="1.0" encoding="UTF-8"?>
<svg id="Layer_1_copy_3" data-name="Layer 1 copy 3" xmlns="http://www.w3.org/2000/svg" viewBox="0 0 1000 1000">
  <defs>
    <style>
      .cls-1 {
        fill: #00a550;
      }
    </style>
  </defs>
  <path d="M500,0C223.86,0,0,223.86,0,500s223.86,500,500,500,500-223.86,500-500S776.14,0,500,0ZM729.8,729.8c-61.38,61.38-142.99,95.19-229.8,95.19s-168.42-33.8-229.8-95.19c-61.38-61.38-95.19-142.99-95.19-229.8s33.8-168.42,95.19-229.8c61.38-61.38,142.99-95.19,229.8-95.19s168.42,33.8,229.8,95.19c61.38,61.38,95.19,142.99,95.19,229.8s-33.8,168.42-95.19,229.8Z"/>
  <path class="cls-1" d="M500,200.01c-165.41,0-299.99,134.57-299.99,299.99s134.57,299.99,299.99,299.99,299.99-134.57,299.99-299.99-134.57-299.99-299.99-299.99ZM656.67,500c0,86.52-70.14,156.67-156.67,156.67h0c-86.52,0-156.67-70.14-156.67-156.67h0c0-86.52,70.14-156.67,156.67-156.67h0c86.52,0,156.67,70.14,156.67,156.67h0Z"/>
</svg>