<?xml version="1.0" encoding="UTF-8"?>
<svg id="Layer_1_copy_3" data-name="Layer 1 copy 3" xmlns="http://www.w3.org/2000/svg" viewBox="0 0 1000 1000">
  <defs>
    <style>
      .cls-1 {
        fill: #00a550;
      }
    </style>
  </defs>
  <path class="cls-1" d="M980.01,171.65h-101.68c-11.05,0-20,8.95-20,20v646.67c0,11.05-8.95,20-20,20H191.67c-11.05,0-20,8.95-20,20v101.68c0,11.05,8.95,20,20,20h666.67s121.68,0,121.68,0c11.05,0,20-8.95,20-20V191.65c0-11.05-8.95-20-20-20Z"/>
  <polygon points="168.36 0 -.03 168.39 -.03 329.19 329.16 0 168.36 0"/>
  <polygon points="364.51 0 -.03 364.54 -.03 521.01 520.98 0 364.51 0"/>
  <path d="M828.3,272.03V19.42c-.31-10.78-9.12-19.42-19.97-19.42h-252L-.03,556.36v154.15l355.27-355.27c32.49-32.49,85.36-32.49,117.85,0,15.74,15.74,24.41,36.67,24.41,58.92s-8.67,43.19-24.41,58.93L117.85,828.33h154.15L828.3,272.03ZM526.91,183.57l1.8-1.8c32.49-32.49,85.36-32.49,117.85,0s32.49,85.36,0,117.85l-1.8,1.8c-16.25,16.25-37.59,24.37-58.92,24.37s-42.68-8.12-58.93-24.37c-15.74-15.74-24.41-36.67-24.41-58.93s8.67-43.19,24.41-58.93Z"/>
  <path d="M627.08,283.75l1.8-1.8c22.74-22.74,22.74-59.75,0-82.5-11.37-11.37-26.31-17.06-41.25-17.06s-29.88,5.69-41.25,17.06l-1.8,1.8c-11.02,11.02-17.09,25.67-17.09,41.25s6.07,30.23,17.09,41.25c22.74,22.74,59.75,22.75,82.5,0Z"/>
  <path d="M632.23,757c0,25.89,7.77,50.56,22.19,71.34h154.49c10.58-.3,19.09-8.81,19.39-19.39v-299.99l-159.43,159.43c-23.63,23.63-36.64,55.1-36.64,88.62Z"/>
  <path d="M472.5,414.17c0-15.58-6.07-30.23-17.09-41.25-22.74-22.74-59.75-22.74-82.5,0L-.03,745.87v62.5c0,10.85,8.65,19.66,19.42,19.97h63.1l372.92-372.92c11.02-11.02,17.09-25.67,17.09-41.25Z"/>
  <path d="M19.97,0C8.93,0-.03,8.95-.03,20v113.03L133,0H19.97Z"/>
  <path d="M625.12,828.33c-11.68-21.65-17.89-46-17.89-71.34,0-40.2,15.61-77.95,43.97-106.3l177.11-177.11v-166.21L307.36,828.33h317.76Z"/>
</svg>