<?xml version="1.0" encoding="UTF-8"?>
<svg id="Layer_1_copy_3" data-name="Layer 1 copy 3" xmlns="http://www.w3.org/2000/svg" viewBox="0 0 1000 1000">
  <defs>
    <style>
      .cls-1 {
        fill: #00a550;
      }
    </style>
  </defs>
  <path d="M7.76,675.91l452.01,132.03c14.1-13.8,22.5-33.35,21.42-54.72l-12.68-249.21L8.32,664.84l-.56,11.07Z"/>
  <path d="M3.82,753.22c-2.08,40.85,30.48,75.12,71.39,75.12h334.57c7.11,0,13.96-1.06,20.42-2.98L6.45,701.57l-2.63,51.64Z"/>
  <path d="M455.04,239.52c-1.93-38.02-33.32-67.85-71.39-67.85H101.35c-38.07,0-69.46,29.83-71.39,67.85l-11.38,223.58,440-153.78-3.55-69.81Z"/>
  <polygon points="459.91 335.34 17.21 490.06 9.69 637.88 467.17 477.99 459.91 335.34"/>
  <rect x="171.67" y="858.33" width="141.67" height="141.67" rx="20" ry="20"/>
  <rect x="171.67" width="141.67" height="141.67" rx="20" ry="20"/>
  <path class="cls-1" d="M996.18,753.22l-12.68-249.21-460.18,160.83-.56,11.07,452.01,132.03c14.1-13.8,22.5-33.35,21.42-54.72Z"/>
  <path class="cls-1" d="M970.04,239.52c-1.93-38.02-33.32-67.85-71.39-67.85h-282.29c-38.07,0-69.46,29.83-71.39,67.85l-11.38,223.58,440-153.78-3.55-69.81Z"/>
  <polygon class="cls-1" points="974.91 335.34 532.21 490.06 524.69 637.88 982.17 477.99 974.91 335.34"/>
  <path class="cls-1" d="M518.82,753.22c-2.08,40.85,30.48,75.12,71.39,75.12h334.57c7.11,0,13.96-1.06,20.42-2.98l-423.76-123.78-2.63,51.64Z"/>
  <rect x="686.67" y="858.33" width="141.67" height="141.67" rx="20" ry="20"/>
  <rect x="686.67" width="141.67" height="141.67" rx="20" ry="20"/>
</svg>